# xmcd CD database file
#
# Track frame offsets:
#	150
#	23364
#	40221
#	66359
#	92974
#	124795
#	142535
#	162166
#	189033
#	220668
#	242150
#	265706
#	284626
#	302892
#
# Disc length: 4381 seconds
#
# Revision: 0
# Processed by: cddbd v1.5.1PL2 Copyright (c) Steve Scherf et al.
# Submitted via: CDex 1.50
#
DISCID=bb111b0e
DTITLE=George BENSON - Absolute Benson
DYEAR=1900
DGENRE=Jazz
TTITLE0=The getto
TTITLE1=El barrio
TTITLE2=Jazzenco
TTITLE3=Deeper then you think
TTITLE4=One One One
TTITLE5=Hipping the hop
TTITLE6=Lately
TTITLE7=Come back baby
TTITLE8=Medicine man
TTITLE9=Got to be there
TTITLE10=My heart is dansing
TTITLE11=Love of my life
TTITLE12=Kiss and make up
TTITLE13=Love remembers
EXTD=
EXTT0=
EXTT1=
EXTT2=
EXTT3=
EXTT4=
EXTT5=
EXTT6=
EXTT7=
EXTT8=
EXTT9=
EXTT10=
EXTT11=
EXTT12=
EXTT13=
PLAYORDER=
